<?xml version="1.0" encoding="UTF-8"?>
<!DOCTYPE svg PUBLIC "-//W3C//DTD SVG 1.1//EN" "http://www.w3.org/Graphics/SVG/1.1/DTD/svg11.dtd">
<!-- Creator: CorelDRAW 2021.5 (Evaluation Version) -->
<svg xmlns="http://www.w3.org/2000/svg" xml:space="preserve" width="239.104mm" height="197.556mm" version="1.1" style="shape-rendering:geometricPrecision; text-rendering:geometricPrecision; image-rendering:optimizeQuality; fill-rule:evenodd; clip-rule:evenodd"
viewBox="0 0 5811.76 4801.88"
 xmlns:xlink="http://www.w3.org/1999/xlink"
 xmlns:xodm="http://www.corel.com/coreldraw/odm/2003">
 <defs>
  <style type="text/css">
   <![CDATA[
    .fil0 {fill:#FEFEFE;fill-rule:nonzero}
   ]]>
  </style>
 </defs>
 <g id="Layer_x0020_1">
  <metadata id="CorelCorpID_0Corel-Layer"/>
  <path class="fil0" d="M3873.92 4121.45c0.2,-180.4 71.95,-353.37 199.5,-480.96 127.58,-127.55 300.55,-199.3 480.96,-199.5 180.4,0.2 353.34,71.95 480.92,199.5 127.55,127.58 199.3,300.55 199.5,480.96 -0.2,180.4 -71.95,353.34 -199.5,480.92 -127.58,127.55 -300.52,199.3 -480.92,199.5 -180.4,-0.2 -353.37,-71.95 -480.92,-199.5 -127.58,-127.58 -199.33,-300.52 -199.53,-480.92zm369.85 0c0.1,82.33 32.86,161.28 91.07,219.5 58.25,58.21 137.16,90.97 219.53,91.07 82.33,-0.1 161.28,-32.86 219.5,-91.07 58.21,-58.21 90.97,-137.16 91.07,-219.5 -0.07,-82.36 -32.83,-161.31 -91.07,-219.53 -58.21,-58.25 -137.16,-90.97 -219.5,-91.07 -82.36,0.07 -161.31,32.83 -219.56,91.04 -58.25,58.25 -91,137.2 -91.11,219.56l0.06 0.01zm-2441.4 0c0.17,-180.4 71.91,-353.37 199.5,-480.96 127.55,-127.55 300.52,-199.3 480.92,-199.5 180.4,0.2 353.37,71.95 480.92,199.5 127.58,127.58 199.33,300.55 199.5,480.96 -0.17,180.4 -71.91,353.34 -199.5,480.92 -127.55,127.55 -300.52,199.3 -480.92,199.5 -180.4,-0.17 -353.41,-71.91 -480.99,-199.5 -127.58,-127.55 -199.33,-300.52 -199.53,-480.92l0.1 0zm369.85 0l-0.03 0c0.1,82.33 32.86,161.28 91.11,219.5 58.21,58.21 137.16,90.97 219.5,91.07 82.33,-0.1 161.28,-32.86 219.5,-91.07 58.21,-58.21 90.97,-137.16 91.11,-219.5 -0.1,-82.36 -32.86,-161.31 -91.11,-219.53 -58.21,-58.21 -137.16,-90.97 -219.5,-91.07 -82.36,0.07 -161.31,32.83 -219.56,91.04 -58.25,58.21 -91,137.2 -91.11,219.56l0.09 0.01zm-255.06 -770.06c-39.02,-0.03 -77.01,-12.39 -108.59,-35.31 -31.55,-22.91 -55.07,-55.23 -67.16,-92.32l-929.76 -2854.02 -626.52 0 0.03 0c-49.07,0.07 -96.17,-19.39 -130.9,-54.06 -34.73,-34.67 -54.26,-81.73 -54.26,-130.8 0,-49.04 19.49,-96.06 54.16,-130.73 34.67,-34.67 81.69,-54.16 130.73,-54.16l760.71 0c39.02,0 77.04,12.36 108.59,35.27 31.55,22.95 55.07,55.23 67.16,92.35l193 592.56 4312.42 0c49.04,0 96.06,19.46 130.73,54.16 34.67,34.67 54.16,81.69 54.16,130.73 0.03,9.38 -0.67,18.76 -2.04,28.07 3.92,25.49 2.45,51.55 -4.32,76.47l-596.82 2205.26c-10.62,39.22 -33.83,73.82 -66.09,98.51 -32.26,24.68 -71.75,38.08 -112.37,38.08l-3112.85 -0.06zm134.21 -369.86l2837.3 0 512.04 -1891.76 -3965.65 0 616.31 1891.76z"/>
 </g>
</svg>
