<?xml version="1.0" encoding="UTF-8"?>
<!DOCTYPE svg PUBLIC "-//W3C//DTD SVG 1.1//EN" "http://www.w3.org/Graphics/SVG/1.1/DTD/svg11.dtd">
<!-- Creator: CorelDRAW 2021.5 (Evaluation Version) -->
<svg xmlns="http://www.w3.org/2000/svg" xml:space="preserve" width="192.156mm" height="192.156mm" version="1.1" style="shape-rendering:geometricPrecision; text-rendering:geometricPrecision; image-rendering:optimizeQuality; fill-rule:evenodd; clip-rule:evenodd"
viewBox="0 0 1248.12 1248.12"
 xmlns:xlink="http://www.w3.org/1999/xlink"
 xmlns:xodm="http://www.corel.com/coreldraw/odm/2003">
 <defs>
  <style type="text/css">
   <![CDATA[
    .fil0 {fill:#FEFEFE;fill-rule:nonzero}
   ]]>
  </style>
 </defs>
 <g id="Layer_x0020_1">
  <metadata id="CorelCorpID_0Corel-Layer"/>
  <path class="fil0" d="M1044.94 1213.17l-420.88 -420.75 -420.88 420.75c-22.28,22.37 -52.54,34.94 -84.11,34.94 -31.57,0 -61.84,-12.58 -84.12,-34.94 -22.37,-22.28 -34.94,-52.55 -34.94,-84.12 0,-31.57 12.58,-61.83 34.94,-84.11l420.75 -420.88 -420.75 -420.88c-22.37,-22.28 -34.94,-52.54 -34.94,-84.11 0,-31.57 12.58,-61.84 34.94,-84.12 22.28,-22.37 52.55,-34.94 84.12,-34.94 31.57,0 61.83,12.58 84.11,34.94l420.88 420.75 420.88 -420.75c22.28,-22.37 52.54,-34.94 84.11,-34.94 31.57,0 61.84,12.58 84.12,34.94 22.37,22.28 34.94,52.55 34.94,84.12 0,31.57 -12.58,61.83 -34.94,84.11l-420.75 420.88 420.75 420.88c22.37,22.28 34.94,52.54 34.94,84.11 0,31.57 -12.58,61.84 -34.94,84.12 -22.28,22.37 -52.55,34.94 -84.12,34.94 -31.57,0 -61.83,-12.58 -84.11,-34.94z"/>
 </g>
</svg>
