<?xml version="1.0" encoding="UTF-8"?>
<!DOCTYPE svg PUBLIC "-//W3C//DTD SVG 1.1//EN" "http://www.w3.org/Graphics/SVG/1.1/DTD/svg11.dtd">
<!-- Creator: CorelDRAW 2021.5 (Evaluation Version) -->
<svg xmlns="http://www.w3.org/2000/svg" xml:space="preserve" width="197.557mm" height="197.557mm" version="1.1" style="shape-rendering:geometricPrecision; text-rendering:geometricPrecision; image-rendering:optimizeQuality; fill-rule:evenodd; clip-rule:evenodd"
viewBox="0 0 1990.61 1990.61"
 xmlns:xlink="http://www.w3.org/1999/xlink"
 xmlns:xodm="http://www.corel.com/coreldraw/odm/2003">
 <defs>
  <style type="text/css">
   <![CDATA[
    .fil0 {fill:#FEFEFE;fill-rule:nonzero}
   ]]>
  </style>
 </defs>
 <g id="Layer_x0020_1">
  <metadata id="CorelCorpID_0Corel-Layer"/>
  <g id="_2487115145312">
   <g>
    <path class="fil0" d="M1658.85 0l-1327.09 0c-87.99,0 -172.37,34.95 -234.59,97.17 -62.22,62.22 -97.17,146.6 -97.17,234.59l0 1327.09c0,87.99 34.95,172.37 97.17,234.59 62.22,62.22 146.6,97.17 234.59,97.17l1327.09 0c87.99,0 172.37,-34.95 234.59,-97.17 62.22,-62.22 97.17,-146.6 97.17,-234.59l0 -1327.09c0,-87.99 -34.95,-172.37 -97.17,-234.59 -62.22,-62.22 -146.6,-97.17 -234.59,-97.17l0 -0zm165.89 1658.85l-0.01 0c0,43.99 -17.47,86.19 -48.59,117.29 -31.1,31.12 -73.3,48.59 -117.29,48.59l-1327.09 -0c-43.99,0 -86.19,-17.47 -117.29,-48.59 -31.12,-31.1 -48.59,-73.3 -48.59,-117.29l0 -1327.09c0,-43.99 17.47,-86.19 48.59,-117.29 31.1,-31.12 73.3,-48.59 117.29,-48.59l1327.09 0c43.99,0 86.19,17.47 117.29,48.59 31.12,31.1 48.59,73.3 48.59,117.29l0.01 1327.09z"/>
    <path class="fil0" d="M995.31 497.65c-131.98,0 -258.56,52.43 -351.9,145.75 -93.32,93.34 -145.75,219.92 -145.75,351.9 0,131.98 52.43,258.56 145.75,351.89 93.34,93.32 219.92,145.75 351.9,145.75 131.98,0 258.56,-52.43 351.89,-145.75 93.32,-93.34 145.75,-219.92 145.75,-351.89 0,-131.98 -52.43,-258.56 -145.75,-351.9 -93.34,-93.32 -219.92,-145.75 -351.89,-145.75zm0 829.4c-87.99,0 -172.37,-34.95 -234.59,-97.17 -62.22,-62.22 -97.17,-146.6 -97.17,-234.59 0,-87.99 34.95,-172.37 97.17,-234.59 62.22,-62.22 146.6,-97.17 234.59,-97.17 87.99,0 172.37,34.95 234.59,97.17 62.22,62.22 97.17,146.6 97.17,234.59 0,87.99 -34.95,172.37 -97.17,234.59 -62.22,62.22 -146.6,97.17 -234.59,97.17z"/>
    <path class="fil0" d="M1658.85 456.17c0,68.72 -55.71,124.41 -124.41,124.41 -68.72,0 -124.41,-55.69 -124.41,-124.41 0,-68.7 55.69,-124.41 124.41,-124.41 68.7,0 124.41,55.71 124.41,124.41z"/>
   </g>
  </g>
 </g>
</svg>
