<?xml version="1.0" encoding="UTF-8"?>
<!DOCTYPE svg PUBLIC "-//W3C//DTD SVG 1.1//EN" "http://www.w3.org/Graphics/SVG/1.1/DTD/svg11.dtd">
<!-- Creator: CorelDRAW 2021.5 (Evaluation Version) -->
<svg xmlns="http://www.w3.org/2000/svg" xml:space="preserve" width="109.439mm" height="110.201mm" version="1.1" style="shape-rendering:geometricPrecision; text-rendering:geometricPrecision; image-rendering:optimizeQuality; fill-rule:evenodd; clip-rule:evenodd"
viewBox="0 0 506.89 510.42"
 xmlns:xlink="http://www.w3.org/1999/xlink"
 xmlns:xodm="http://www.corel.com/coreldraw/odm/2003">
 <defs>
  <style type="text/css">
   <![CDATA[
    .fil0 {fill:#FEFEFE}
   ]]>
  </style>
 </defs>
 <g id="Layer_x0020_1">
  <metadata id="CorelCorpID_0Corel-Layer"/>
  <path class="fil0" d="M279.72 209.37c-0.3,-49.09 4.98,-41.1 -80.14,-41.31 -28.76,-0.07 -27.57,6.36 -27.56,33.08l0 182.59c0,18.49 -3.16,109.92 3.06,118.94 7.79,11.31 36.42,6.9 52.6,6.9 17.05,0 45,4.89 50.79,-9.91 2.66,-6.8 1.24,-104.97 1.24,-121.05 0,-37.78 -2.81,-79.05 18.84,-104.04 9.11,-10.51 21.33,-19.38 42.79,-18.86 20.86,0.5 33.04,8.6 41.31,20.31 17.82,25.23 13.46,72.9 13.46,107.7 0,20.43 0,40.86 0,61.29 0,12.88 -2.66,50.58 3.29,58.13 8.12,10.3 37.61,6.43 53,6.43 16.85,0 44.75,4.86 52.08,-8.63 3.92,-7.21 1.9,-104.51 1.9,-121.04 0,-78.03 1.1,-156.95 -49.04,-195.16 -23.45,-17.87 -62.76,-25.25 -99.18,-20.37 -17.26,2.31 -34.05,6.97 -46.43,14.87 -12.66,8.09 -19.18,14.64 -27.76,25.79l-4.23 4.35z"/>
  <path class="fil0" d="M28.86 168.96c-17.48,4.9 -13.02,24.04 -13.02,43.67l0 224.72c0,16.6 -1.4,40.35 0.13,56.09 1.83,18.86 21.38,16.13 39.33,16.13 11.56,0 46.16,1.46 55.12,-0.62 17.4,-4.04 13.1,-26.3 13.1,-43.51l0 -224.72c0,-71.36 8.41,-72.66 -40.14,-72.66 -10.99,0 -46.77,-1.27 -54.53,0.9z"/>
  <path class="fil0" d="M55.6 1.62c-33.06,7.02 -63.16,39.4 -53.91,82.2 7.15,33.08 40.03,63.31 83.18,53.55 32.68,-7.39 61.4,-39.58 53,-81.39 -6.74,-33.56 -40.06,-63.33 -82.27,-54.36z"/>
 </g>
</svg>
