<?xml version="1.0" encoding="UTF-8"?>
<!DOCTYPE svg PUBLIC "-//W3C//DTD SVG 1.1//EN" "http://www.w3.org/Graphics/SVG/1.1/DTD/svg11.dtd">
<!-- Creator: CorelDRAW 2021.5 (Evaluation Version) -->
<svg xmlns="http://www.w3.org/2000/svg" xml:space="preserve" width="177.078mm" height="178.532mm" version="1.1" style="shape-rendering:geometricPrecision; text-rendering:geometricPrecision; image-rendering:optimizeQuality; fill-rule:evenodd; clip-rule:evenodd"
viewBox="0 0 985.43 993.52"
 xmlns:xlink="http://www.w3.org/1999/xlink"
 xmlns:xodm="http://www.corel.com/coreldraw/odm/2003">
 <defs>
  <style type="text/css">
   <![CDATA[
    .fil0 {fill:#FEFEFE}
   ]]>
  </style>
 </defs>
 <g id="Layer_x0020_1">
  <metadata id="CorelCorpID_0Corel-Layer"/>
  <path class="fil0" d="M10.43 993.52l8.46 0c0.85,-0.31 1.75,-0.58 2.55,-0.82 2.12,-0.64 4.27,-1.23 6.41,-1.8 6.8,-1.82 13.64,-3.52 20.47,-5.21 20.03,-4.95 40.12,-9.7 60.2,-14.43 33.71,-7.93 67.46,-15.65 101.18,-23.55 16.06,-3.76 54.94,-17.2 69.5,-11.18 40.93,16.94 82.54,32.37 126.08,41.11 45.72,9.18 90.44,10.19 136.74,5.17 87.64,-9.5 170.36,-40.06 241.56,-92.3 65.58,-48.12 117.82,-112.13 152.78,-185.5 34.47,-72.33 51.55,-152.82 48.77,-232.94 -2.88,-83.2 -26.91,-163.48 -70.54,-234.42 -9.83,-15.98 -20.22,-31.05 -31.78,-45.81 -8.57,-10.94 -17.82,-21.63 -27.08,-31.99 -5.09,-5.69 -10.26,-11.32 -15.55,-16.83 -4.38,-4.57 -8.88,-9.13 -13.56,-13.39 -49.5,-45.12 -109.72,-80.55 -172.88,-102.86 -39.04,-13.8 -80.02,-22.09 -121.28,-25.27 -41.77,-3.22 -84.02,-1.23 -125.33,5.79 -81.66,13.88 -160.91,47.75 -224.05,101.91 -17.33,14.87 -34.36,30.04 -50.07,46.63 -16.34,17.26 -30.82,35.69 -44.43,55.15 -94.44,135.08 -115.64,313.96 -52.7,466.65 3.37,8.17 7,16.01 11,23.88 2.1,4.13 4.56,8.59 5.54,13.14 1.08,4.97 0.38,9.96 -0.51,14.9 -1.63,9.06 -3.78,18.16 -5.64,27.19l-42.55 206.68c-0.97,4.73 -2.09,9.64 -2.72,14.42 -0.23,1.75 -0.52,4.31 -0,6.04 0.42,1.4 1.57,2.62 2.58,3.62 2.11,2.09 4.51,4.07 6.82,6.03zm114.22 -132.87c0.13,-3.31 0.63,-6.74 1.12,-10.01 0.71,-4.71 1.56,-9.41 2.44,-14.08 2.27,-12.05 4.81,-24.07 7.39,-36.06 2.72,-12.64 5.51,-25.27 8.29,-37.9 2.13,-9.66 4.29,-19.35 6.23,-29.05 0.79,-3.96 1.78,-7.84 2.75,-11.76 0.76,-3.08 1.52,-6.22 1.93,-9.38 0.78,-6.13 -0.13,-10.95 -3.13,-16.43 -26.61,-48.59 -45.08,-99.55 -52.03,-154.71 -6.29,-49.9 -2.6,-100.82 10.27,-149.41 12.63,-47.72 34.09,-93.16 63.34,-132.95l0.09 -0.12 23.03 -28.18c7.68,-9.4 16.4,-18.55 25.29,-26.81 8.91,-8.28 18.39,-16.67 28.23,-23.81 72.01,-52.24 137.11,-77.99 226.91,-82.7 55.28,-2.9 110.14,6.2 161.52,26.8 50.23,20.14 95.69,50.67 133.94,88.94 8.54,8.54 16.91,17.2 24.71,26.43 8.04,9.52 15.39,19.55 22.57,29.73 47.71,67.66 72.64,158.26 68.21,240.96 -1.58,29.55 -5.62,58.33 -13.58,86.86 -7.37,26.41 -17.8,51.46 -29.43,76.25 -25.3,53.92 -72.1,104.18 -119.73,139.36 -39.74,29.34 -85.59,50.58 -133.35,63 -48.46,12.6 -99.45,16.27 -149.14,9.72 -28.39,-3.74 -55.22,-9.36 -82.05,-19.5 -24.55,-9.28 -48.3,-21.6 -71.98,-32.92 -4.53,-2.17 -10.86,-1.34 -15.61,-0.38 -6.86,1.38 -13.49,3.69 -20.29,5.29l-128.22 30.26 0.3 -7.46zm273.37 -488.82l-40.95 -93.8c-7.22,-14.99 -20.84,-23.88 -37.58,-18.26 -7.06,2.37 -12.43,6.19 -17.74,11.27 -5.95,5.68 -11.24,12.01 -17.25,17.7 -46.81,44.34 -44.96,103.25 -22.77,159.57 11.37,28.87 27.79,56.53 46.05,81.56 16.56,22.7 35.56,44.62 56.12,63.8 22.84,21.32 45.76,42.83 70.71,61.69 26.44,19.99 54.17,35.93 84.25,49.81 61.39,28.31 150.49,41.3 201.2,-14.13 10.61,-11.6 19.75,-24.03 28.31,-37.21 9.31,-14.32 8.81,-29.68 -4.08,-41.39 -3.14,-2.85 -12.05,-6.17 -16.06,-7.64 -9.58,-3.52 -19.47,-6.49 -29.27,-9.32 -10.41,-3 -20.87,-5.81 -31.34,-8.6 -7.8,-2.07 -15.68,-4.08 -23.43,-6.35 -8.54,-2.5 -18,-3.85 -26.62,-0.92 -6.65,2.26 -11.78,6.68 -16.51,11.71 -5.39,5.73 -10.12,12 -15.84,17.45 -6.71,6.39 -14.06,10.93 -23.3,12.71 -21.61,4.16 -53.02,-17.13 -69.66,-29.22 -11.8,-8.57 -23.18,-17.79 -34.29,-27.23 -8.47,-7.2 -16.75,-14.59 -25.12,-21.91 -6.09,-5.32 -11.08,-11.6 -16.65,-17.41 -5.11,-5.33 -10.46,-10.37 -15.66,-15.61 -6.08,-6.12 -11.64,-12.45 -16.99,-19.22 -9.36,-11.82 -19.03,-27.09 -18.93,-42.74 0.07,-11.47 5.19,-20.48 12.22,-29.13 12.12,-14.91 26.84,-25.84 21.18,-47.21z"/>
 </g>
</svg>
